<?xml version="1.0" encoding="iso-8859-1"?>
<!-- Generator: Adobe Illustrator 15.1.0, SVG Export Plug-In . SVG Version: 6.00 Build 0)  -->
<!DOCTYPE svg PUBLIC "-//W3C//DTD SVG 1.1//EN" "http://www.w3.org/Graphics/SVG/1.1/DTD/svg11.dtd">
<svg version="1.1" xmlns="http://www.w3.org/2000/svg" xmlns:xlink="http://www.w3.org/1999/xlink" x="0px" y="0px" width="512px"
	 height="512px" viewBox="0 0 512 512" style="enable-background:new 0 0 512 512;" xml:space="preserve">
<g id="menu-tools">
	<g>
		<path style="fill:#959595;" d="M415.086,387.694l-0.185-2.397l-99.381-99.381l-30,55.48l86.641,86.641l2.397,0.185
			c1.489,0.115,2.963,0.173,4.38,0.173c11.14,0,20.018-3.486,26.385-10.362C416.366,406.107,415.144,388.44,415.086,387.694z"/>
		<path style="fill:#959595;" d="M255.033,225.427l-31.708-31.709c9.701-43.005,9.843-57.303,9.844-57.904l0.003-1.664l-0.796-1.46
			c-0.365-0.669-9.167-16.611-29.395-36.839c-8.125-8.125-20.722-12.246-37.44-12.246c-18.965,0-36.75,5.314-37.497,5.54
			l-10.389,3.143l22.925,22.926l34.003,10.974l5.707,38.316l-28.918,28.918l-38.316-5.706l-10.975-34.003l-22.925-22.926
			l-3.143,10.39c-0.647,2.139-15.59,52.642,6.706,74.937c20.228,20.229,36.17,29.031,36.839,29.396l1.414,0.764l2.006,0.031
			c2.562,0,25.232-0.284,57.799-9.653l18.777,18.777L255.033,225.427z"/>
		<polygon style="fill:#959595;" points="429.307,103.549 429.306,103.55 425.284,99.528 382.138,127.74 375.557,148.946 
			309.871,214.631 328.256,233.016 393.941,167.331 415.147,160.749 443.358,117.603 		"/>
		<path style="fill:#959595;" d="M283.602,213.086l-4.284,7.136c-1.148,1.913-1.384,3.945-1.656,6.298
			c-0.706,6.095-1.773,15.307-20.005,20.493c-16.618,4.728-24.598,9.652-24.93,9.86l-0.627,0.392L114.289,375.077l0.055,2.767
			c0.291,14.836,6.717,25.651,15.171,33.272c7.621,8.454,18.437,14.881,33.272,15.172l2.767,0.054l117.812-117.811l0.393-0.627
			c0.207-0.332,5.131-8.312,9.859-24.93c5.187-18.232,14.398-19.3,20.494-20.005c2.353-0.272,4.384-0.508,6.296-1.656l7.14-4.283
			L283.602,213.086z"/>
	</g>
</g>
<g id="Ebene_1">
</g>
</svg>
